<svg width="127" height="25" viewBox="0 0 127 25" fill="none" xmlns="http://www.w3.org/2000/svg">
<path d="M21.9072 21.8741V0H36.4953V3.03136H25.6572V9.30937H29.9191C30.328 9.30953 30.7308 9.40807 31.0936 9.59668C31.4564 9.78529 31.7685 10.0584 32.0035 10.393L33.3257 12.284H25.6572V18.8471H36.4953V21.877L21.9072 21.8741Z" fill="#121212"/>
<path d="M59.4121 21.8741V0H73.9987V3.03136H63.162V9.30937H67.4182C67.8271 9.30953 68.2299 9.40807 68.5927 9.59668C68.9555 9.78529 69.2676 10.0584 69.5026 10.393L70.8248 12.284H63.162V18.8471H73.9987V21.877L59.4121 21.8741Z" fill="#121212"/>
<path d="M46.0596 21.8741V3.03136H39.623V0H56.2504V3.03136H49.8095V21.8741H46.0596Z" fill="#121212"/>
<path d="M113.992 1.5722e-05H118.211C118.429 -8.36035e-05 118.643 0.0687329 118.82 0.196686C118.997 0.324639 119.13 0.505219 119.198 0.712764L126.243 21.8741H122.3L116.65 4.16596H115.608L109.893 21.8741H105.924L112.999 0.711309C113.068 0.50321 113.202 0.322396 113.38 0.194665C113.559 0.0669332 113.773 -0.00118956 113.992 1.5722e-05Z" fill="#121212"/>
<path d="M84.1733 21.1628L77.1055 0H81.0736L86.7916 17.7082H87.8331L93.4827 0H97.4203L90.3728 21.1614C90.304 21.3689 90.1715 21.5495 89.9942 21.6774C89.8169 21.8054 89.6038 21.8742 89.3851 21.8741H85.1668C84.9475 21.8749 84.7335 21.8066 84.5552 21.6789C84.3769 21.5512 84.2433 21.3707 84.1733 21.1628Z" fill="#121212"/>
<path d="M99.9775 21.8741V0H103.117V21.8741H99.9775Z" fill="#121212"/>
<path d="M14.9647 6.36392e-06V16.5445C14.9647 16.5908 14.9464 16.6352 14.9136 16.6679C14.8809 16.7007 14.8365 16.719 14.7902 16.719C14.7604 16.7176 14.7315 16.7088 14.7061 16.6933C14.6807 16.6778 14.6596 16.6561 14.6447 16.6303L5.51574 0.520749C5.4242 0.361911 5.29231 0.23009 5.13343 0.138641C4.97454 0.0471919 4.79431 -0.000634862 4.61098 6.36392e-06H0.683594V19.7911H10.4061L9.07802 17.7998C8.84553 17.4512 8.53059 17.1654 8.16114 16.9677C7.79168 16.7701 7.37915 16.6667 6.96014 16.6667H4.43352V5.30489C4.43352 5.28942 4.43657 5.2741 4.44249 5.2598C4.44841 5.24551 4.45709 5.23252 4.46803 5.22158C4.47897 5.21064 4.49196 5.20196 4.50626 5.19604C4.52055 5.19012 4.53587 5.18707 4.55134 5.18707C4.572 5.18747 4.59221 5.19316 4.61004 5.2036C4.62786 5.21404 4.64271 5.22888 4.65317 5.24671L13.8825 21.3548C13.9741 21.5129 14.1056 21.644 14.2639 21.7352C14.4222 21.8263 14.6017 21.8742 14.7844 21.8741H18.7118V6.36392e-06H14.9647Z" fill="#121212"/>
<path d="M12.4851 25.0001H4.14453C3.66767 25 3.20039 24.8661 2.79588 24.6136C2.39138 24.3611 2.06589 24.0001 1.85646 23.5716L1.02734 21.8741H9.36795C9.84482 21.8742 10.3121 22.0081 10.7166 22.2606C11.1211 22.5131 11.4466 22.8741 11.656 23.3026L12.4851 25.0001Z" fill="#121212"/>
<path d="M120.248 25.0001H111.915L112.984 22.5054C113.065 22.3182 113.198 22.1587 113.368 22.0465C113.538 21.9343 113.738 21.8744 113.941 21.8741H118.267C118.474 21.8743 118.676 21.9359 118.848 22.0511C119.02 22.1664 119.153 22.3301 119.232 22.5214L120.248 25.0001Z" fill="#121212"/>
</svg>
