<svg width="24" height="25" viewBox="0 0 24 25" fill="none" xmlns="http://www.w3.org/2000/svg">
<path d="M17 2.80859H7C4.23858 2.80859 2 5.04717 2 7.80859V17.8086C2 20.57 4.23858 22.8086 7 22.8086H17C19.7614 22.8086 22 20.57 22 17.8086V7.80859C22 5.04717 19.7614 2.80859 17 2.80859Z" stroke="white" stroke-width="2" stroke-linecap="round" stroke-linejoin="round"/>
<path d="M15.9997 12.1789C16.1231 13.0111 15.981 13.8611 15.5935 14.6079C15.206 15.3547 14.5929 15.9603 13.8413 16.3386C13.0898 16.7168 12.2382 16.8485 11.4075 16.7148C10.5768 16.5812 9.80947 16.189 9.21455 15.5941C8.61962 14.9991 8.22744 14.2318 8.09377 13.4011C7.96011 12.5704 8.09177 11.7188 8.47003 10.9673C8.84829 10.2157 9.45389 9.60264 10.2007 9.21514C10.9475 8.82764 11.7975 8.68548 12.6297 8.8089C13.4786 8.93478 14.2646 9.33036 14.8714 9.9372C15.4782 10.544 15.8738 11.33 15.9997 12.1789Z" stroke="white" stroke-width="2" stroke-linecap="round" stroke-linejoin="round"/>
<path d="M17.5 7.30859H17.51" stroke="white" stroke-width="2" stroke-linecap="round" stroke-linejoin="round"/>
</svg>
