<svg width="11" height="14" viewBox="0 0 11 14" fill="none" xmlns="http://www.w3.org/2000/svg">
<path d="M5.5 6.77734C6.32843 6.77734 7 6.10577 7 5.27734C7 4.44892 6.32843 3.77734 5.5 3.77734C4.67157 3.77734 4 4.44892 4 5.27734C4 6.10577 4.67157 6.77734 5.5 6.77734Z" stroke="white" stroke-width="1.125"/>
<path d="M10 5.27734C10 7.76284 5.5 12.7773 5.5 12.7773C5.5 12.7773 1 7.76284 1 5.27734C1 4.08387 1.47411 2.93928 2.31802 2.09536C3.16193 1.25145 4.30653 0.777344 5.5 0.777344C6.69347 0.777344 7.83807 1.25145 8.68198 2.09536C9.52589 2.93928 10 4.08387 10 5.27734Z" stroke="white" stroke-width="1.125"/>
</svg>
