<svg width="12" height="13" viewBox="0 0 12 13" fill="none" xmlns="http://www.w3.org/2000/svg">
<path d="M2.36 2.14193C2.4 2.73526 2.5 3.31526 2.66 3.86859L1.86 4.66859C1.58667 3.86859 1.41333 3.02193 1.35333 2.14193H2.36ZM8.93333 10.1553C9.5 10.3153 10.08 10.4153 10.6667 10.4553V11.4486C9.78667 11.3886 8.94 11.2153 8.13333 10.9486L8.93333 10.1553ZM3 0.808594H0.666667C0.3 0.808594 0 1.10859 0 1.47526C0 7.73526 5.07333 12.8086 11.3333 12.8086C11.7 12.8086 12 12.5086 12 12.1419V9.81526C12 9.44859 11.7 9.14859 11.3333 9.14859C10.5067 9.14859 9.7 9.01526 8.95333 8.76859C8.88667 8.74193 8.81333 8.73526 8.74667 8.73526C8.57333 8.73526 8.40667 8.80193 8.27333 8.92859L6.80667 10.3953C4.92 9.42859 3.37333 7.88859 2.41333 6.00193L3.88 4.53526C4.06667 4.34859 4.12 4.08859 4.04667 3.85526C3.8 3.10859 3.66667 2.30859 3.66667 1.47526C3.66667 1.10859 3.36667 0.808594 3 0.808594Z" fill="white"/>
</svg>
