<svg width="68" height="53" viewBox="0 0 68 53" fill="none" xmlns="http://www.w3.org/2000/svg">
<path fill-rule="evenodd" clip-rule="evenodd" d="M1.98455 0.851562C0.888512 0.851562 0 1.74007 0 2.83611V39.1809C0 40.277 0.888511 41.1655 1.98455 41.1655H53.783C54.8791 41.1655 55.7676 40.277 55.7676 39.1809V2.83611C55.7676 1.74007 54.8791 0.851562 53.783 0.851562H1.98455ZM6 10.8516C4.89543 10.8516 4 11.747 4 12.8516C4 13.9561 4.89543 14.8516 6 14.8516H30C31.1046 14.8516 32 13.9561 32 12.8516C32 11.747 31.1046 10.8516 30 10.8516H6ZM4 19.8516C4 18.747 4.89543 17.8516 6 17.8516H30C31.1046 17.8516 32 18.747 32 19.8516C32 20.9561 31.1046 21.8516 30 21.8516H6C4.89543 21.8516 4 20.9561 4 19.8516ZM5.37443 6.227C6.11659 6.227 6.71822 5.62536 6.71822 4.88321C6.71822 4.14105 6.11659 3.53941 5.37443 3.53941C4.63227 3.53941 4.03063 4.14105 4.03063 4.88321C4.03063 5.62536 4.63227 6.227 5.37443 6.227ZM10.7503 4.88321C10.7503 5.62536 10.1486 6.227 9.40646 6.227C8.6643 6.227 8.06266 5.62536 8.06266 4.88321C8.06266 4.14105 8.6643 3.53941 9.40646 3.53941C10.1486 3.53941 10.7503 4.14105 10.7503 4.88321ZM13.4371 6.227C14.1793 6.227 14.7809 5.62536 14.7809 4.88321C14.7809 4.14105 14.1793 3.53941 13.4371 3.53941C12.6949 3.53941 12.0933 4.14105 12.0933 4.88321C12.0933 5.62536 12.6949 6.227 13.4371 6.227Z" fill="white"/>
<path d="M53.8028 10.8516V26.103H68L49.7465 52.8516V37.3655H36L53.8028 10.8516Z" fill="url(#paint0_linear_1_5367)"/>
<defs>
<linearGradient id="paint0_linear_1_5367" x1="36" y1="52.8516" x2="75.5643" y2="43.7563" gradientUnits="userSpaceOnUse">
<stop stop-color="#187AC9"/>
<stop offset="1" stop-color="#C5D6E3"/>
</linearGradient>
</defs>
</svg>
