<svg width="41" height="56" viewBox="0 0 41 56" fill="none" xmlns="http://www.w3.org/2000/svg">
<circle cx="19.7239" cy="14.8049" r="2.06371" transform="rotate(90 19.7239 14.8049)" fill="white"/>
<path fill-rule="evenodd" clip-rule="evenodd" d="M11.6006 5.51844C11.6006 5.28286 11.5769 5.05281 11.5318 4.83054H28.867C28.8219 5.05281 28.7982 5.28286 28.7982 5.51844C28.7982 7.41804 30.3381 8.95796 32.2377 8.95796C32.4733 8.95796 32.7033 8.93427 32.9256 8.88916V31.3014H37.053V3.45474C37.053 1.93506 35.8211 0.703125 34.3014 0.703125H6.7853C5.26563 0.703125 4.03369 1.93507 4.03369 3.45474V31.3014H8.16111V8.95796C10.0607 8.95796 11.6006 7.41804 11.6006 5.51844Z" fill="white"/>
<path fill-rule="evenodd" clip-rule="evenodd" d="M13.1667 31.3014H16.3406C16.3181 31.2511 16.2965 31.1997 16.2758 31.1471C16.1632 30.8612 16.0823 30.552 16.0332 30.2196H14.9745V28.4548H16.0581C16.1193 28.1222 16.2149 27.8174 16.3449 27.5401C16.5906 27.0163 16.9399 26.6126 17.3929 26.3292C17.8459 26.0458 18.3833 25.9041 19.0052 25.9041V27.7463C18.4754 27.7463 18.0685 27.8837 17.7844 28.1585C17.5004 28.4419 17.3583 28.8584 17.3583 29.408C17.3583 29.846 17.4428 30.1939 17.6117 30.4515C17.7883 30.7177 18.0378 30.8508 18.3603 30.8508C18.5906 30.8508 18.7748 30.765 18.913 30.5932C19.0512 30.4214 19.1625 30.1896 19.247 29.8976C19.3391 29.6142 19.4236 29.3007 19.5004 28.9572C19.5771 28.6222 19.6693 28.283 19.7767 27.9395C19.8842 27.596 20.0224 27.2782 20.1913 26.9862C20.3602 26.7028 20.5829 26.4752 20.8593 26.3035C21.1433 26.1317 21.5003 26.0458 21.9303 26.0458C22.3756 26.0458 22.7748 26.1789 23.128 26.4452C23.4888 26.72 23.7729 27.1022 23.9802 27.5917C24.0915 27.8546 24.1729 28.1423 24.2245 28.4548H25.293V30.2196H24.2085C24.1567 30.4894 24.0806 30.747 23.9802 30.9925C23.937 31.0998 23.8899 31.2027 23.8388 31.3014H27.7895C27.9561 30.6771 28.045 30.0211 28.045 29.3443C28.045 25.1652 24.6572 21.7773 20.4781 21.7773C16.299 21.7773 12.9111 25.1652 12.9111 29.3443C12.9111 30.0211 13 30.6771 13.1667 31.3014ZM21.6539 31.3014V30.8637C21.9303 30.8551 22.1606 30.7735 22.3449 30.619C22.5291 30.473 22.6673 30.284 22.7595 30.0521C22.8593 29.8289 22.9092 29.5841 22.9092 29.3179C22.9092 28.9314 22.8285 28.6094 22.6673 28.3517C22.5061 28.1027 22.2758 27.9781 21.9763 27.9781C21.7614 27.9781 21.5886 28.064 21.4581 28.2358C21.3276 28.4075 21.2201 28.6351 21.1357 28.9185C21.0589 29.2105 20.9821 29.5283 20.9053 29.8718C20.8362 30.2153 20.7479 30.5546 20.6405 30.8895C20.5991 31.032 20.5504 31.1693 20.4945 31.3014H21.6539Z" fill="white"/>
<rect y="31.3013" width="40.3478" height="9.68346" rx="0.806955" fill="url(#paint0_linear_1_5406)"/>
<path d="M20.9808 43.4058C20.9808 42.9601 20.6195 42.5988 20.1738 42.5988C19.7282 42.5988 19.3669 42.9601 19.3669 43.4058L20.9808 43.4058ZM19.6032 55.2737C19.9184 55.5889 20.4293 55.5889 20.7444 55.2737L25.8799 50.1383C26.195 49.8232 26.195 49.3122 25.8799 48.9971C25.5647 48.682 25.0538 48.682 24.7387 48.9971L20.1738 53.5619L15.609 48.9971C15.2939 48.682 14.7829 48.682 14.4678 48.9971C14.1527 49.3122 14.1527 49.8232 14.4678 50.1383L19.6032 55.2737ZM19.3669 43.4058L19.3669 54.7031L20.9808 54.7031L20.9808 43.4058L19.3669 43.4058Z" fill="white"/>
<defs>
<linearGradient id="paint0_linear_1_5406" x1="2.10938e-06" y1="40.9847" x2="20.3531" y2="15.397" gradientUnits="userSpaceOnUse">
<stop stop-color="#187AC9"/>
<stop offset="1" stop-color="#C5D6E3"/>
</linearGradient>
</defs>
</svg>
